<?xml version="1.0" standalone="no"?>
<!DOCTYPE svg PUBLIC "-//W3C//DTD SVG 20010904//EN"
 "http://www.w3.org/TR/2001/REC-SVG-20010904/DTD/svg10.dtd">
<svg version="1.0" xmlns="http://www.w3.org/2000/svg"
 width="612.000000pt" height="792.000000pt" viewBox="0 0 612.000000 792.000000"
 preserveAspectRatio="xMidYMid meet">

<g transform="translate(0.000000,792.000000) scale(0.100000,-0.100000)"
fill="#000000" stroke="none">
<path d="M5120 4197 c-118 -27 -218 -107 -268 -215 -23 -49 -27 -71 -27 -152
0 -86 3 -101 32 -162 39 -82 99 -142 183 -182 58 -27 75 -31 155 -31 76 0 99
4 147 27 112 52 182 132 214 242 76 270 -166 533 -436 473z"/>
<path d="M2596 4080 c-63 -16 -155 -71 -193 -114 -20 -23 -47 -66 -62 -96 -23
-49 -26 -67 -26 -160 0 -98 2 -109 31 -165 38 -72 115 -147 181 -177 74 -32
211 -36 286 -8 309 117 330 544 32 691 -69 34 -178 46 -249 29z"/>
</g>
</svg>
